<svg width="857" height="441" viewBox="0 0 857 441" fill="none" xmlns="http://www.w3.org/2000/svg">
<mask id="mask0_671_6174" style="mask-type:luminance" maskUnits="userSpaceOnUse" x="0" y="0" width="616" height="562">
<path d="M615.868 0H0.729492V561.476H615.868V0Z" fill="white"/>
</mask>
<g mask="url(#mask0_671_6174)">
<g style="mix-blend-mode:multiply" opacity="0.5">
<path opacity="0.5" d="M425.54 256.647C513.345 253.749 576.431 256.099 576.431 256.099C599.801 256.961 618.901 267.615 618.901 279.602V357.943C618.901 370.165 618.901 380.114 618.901 380.114H618.508C574.69 377.294 512.165 376.275 423.911 379.174C112.241 389.358 111.286 389.202 111.286 389.202C89.2085 385.05 81.9617 373.533 95.2194 363.506L128.926 338.28C142.183 328.33 142.745 311.643 130.274 301.224L101.736 277.721C89.2085 267.302 97.6913 260.878 120.611 263.541C120.331 263.541 140.948 266.048 425.54 256.647Z" fill="white"/>
<path opacity="0.52" d="M105.892 276.782C104.324 275.493 102.904 273.882 101.679 272.003V271.533C98.1962 264.796 107.297 261.975 125.442 263.699C126.566 263.699 148.924 266.049 427.955 256.883L444.415 256.413C521.995 254.298 576.487 256.413 577.554 256.413C600.531 257.039 619.35 267.537 619.799 279.289V357.631C619.799 369.382 619.799 379.723 619.799 379.723H619.406C580.082 370.557 523.905 376.119 447.561 378.156L426.157 378.783C117.802 388.889 115.723 388.497 115.723 388.497C94.4323 384.502 88.6462 372.829 101.398 362.958L135.105 337.653C147.857 328.096 147.183 311.174 135.105 301.146L105.892 276.782Z" fill="#F5F5F5"/>
<path opacity="0.54" d="M110.331 275.841C108.846 274.615 107.533 273.022 106.455 271.141V270.671C103.197 264.325 112.073 261.583 130.106 262.837C132.353 262.837 156.396 265.109 429.922 256.178L446.213 255.629C522.389 253.593 576.038 255.629 578.173 255.629C600.644 256.256 619.407 266.362 620.25 277.643V355.985C620.25 367.188 620.25 378.078 620.25 378.078H619.913C580.589 368.99 525.142 374.474 449.247 376.511L427.956 377.216C122.859 387.165 119.657 386.539 119.657 386.539C99.2644 382.7 94.9387 370.243 107.185 361.077L140.891 335.851C153.138 326.685 151.228 309.529 139.712 299.893L110.331 275.841Z" fill="#EBEBEB"/>
<path opacity="0.56" d="M114.769 274.902C113.389 273.689 112.188 272.12 111.23 270.279C111.214 270.124 111.214 269.965 111.23 269.809C108.196 263.699 116.847 261.113 134.88 262.445C138.195 262.445 163.98 264.717 432 255.943L448.123 255.473C522.838 253.436 575.645 255.473 578.903 255.473C601.374 256.099 619.463 265.814 620.755 276.625V354.967C620.755 365.7 620.755 377.059 620.755 376.981H619.856C580.926 368.05 525.703 373.456 450.37 375.571L429.191 376.197C127.465 385.99 123.083 385.207 123.083 385.207C103.534 381.525 100.612 368.598 112.409 359.824L146.116 334.598C157.857 325.824 154.767 308.432 143.7 299.188L114.769 274.902Z" fill="#E2E2E2"/>
<path opacity="0.58" d="M119.207 273.883C117.923 272.731 116.831 271.208 116.005 269.417V269.026C113.196 263.15 121.623 260.721 139.543 262.053C144.037 262.053 171.452 264.325 433.967 255.707L449.921 255.237C523.232 253.2 575.252 255.237 579.521 255.237C601.43 255.864 619.463 265.108 621.205 275.606V353.478C621.205 363.741 621.205 375.492 621.205 375.492H620.867C582.218 366.718 527.389 372.045 452.336 374.082L431.326 374.709C132.858 384.423 127.353 383.405 127.353 383.405C108.646 379.879 107.354 366.483 118.533 358.1L152.239 332.953C163.474 324.492 159.149 306.865 148.588 298.012L119.207 273.883Z" fill="#D8D8D8"/>
<path opacity="0.6" d="M123.645 273.021C122.463 271.882 121.483 270.381 120.78 268.634C120.78 268.634 120.78 268.634 120.78 268.242C118.14 262.68 126.398 260.408 144.262 261.661C149.88 261.661 178.979 263.933 435.933 255.472L451.775 255.002C523.569 253.044 574.802 254.611 580.195 255.002C601.711 255.629 619.519 264.482 621.654 274.509V352.225C621.654 362.017 621.654 374.239 621.654 374.16H621.317C582.892 365.543 528.456 370.792 454.19 372.829L433.349 373.455C138.139 383.091 131.566 381.838 131.566 381.838C113.702 378.469 113.814 364.681 124.544 356.612L157.969 331.464C168.699 323.63 163.137 305.533 153.025 297.15L123.645 273.021Z" fill="#CECECE"/>
<path opacity="0.62" d="M128.083 272.081C127.004 270.95 126.136 269.472 125.555 267.772C125.555 267.772 125.555 267.773 125.555 267.381C123.139 262.054 131.173 259.938 148.925 261.192C155.61 261.662 186.507 263.385 437.899 255.159L453.572 254.689C523.962 252.731 574.353 254.219 580.813 254.689C601.992 255.316 619.519 263.777 622.103 273.335V350.815C622.103 360.216 622.103 372.829 622.103 372.829H621.766C583.566 364.29 529.524 369.46 455.819 371.575L435.09 372.202C142.97 381.681 135.442 380.036 135.442 380.036C118.589 376.824 120.05 362.566 130.218 354.889L163.643 329.819C173.867 321.985 167.07 303.966 157.464 295.976L128.083 272.081Z" fill="#C4C4C4"/>
<path opacity="0.63" d="M132.521 271.141C131.004 269.809 130.892 268.085 130.33 266.91C128.083 261.896 136.285 259.859 153.587 261.035C161.452 261.583 193.979 263.228 440.09 255.237L455.651 254.767C524.58 252.809 574.184 254.219 581.712 254.767C602.498 255.316 619.8 263.385 622.777 272.473V349.796C622.777 358.727 622.777 371.81 622.777 371.81H622.44C584.521 363.427 530.872 368.441 457.673 370.557L437.113 371.183C148.475 380.506 139.375 379.018 139.375 379.018C123.252 375.962 126.342 361.234 136.004 353.948L169.373 328.879C179.036 321.671 171.058 303.261 161.902 295.583L132.521 271.141Z" fill="#BABABA"/>
<path opacity="0.65" d="M136.735 270.122C135.33 268.947 135.386 267.145 134.881 266.127C132.858 261.427 140.892 259.546 158.082 260.721C167.014 261.27 201.282 262.837 441.607 255.002L457 254.532C524.412 252.652 573.286 253.984 581.881 254.532C602.329 255.081 619.351 262.758 622.778 271.376V348.543C622.778 357.004 622.778 370.478 622.778 370.478H622.441C584.746 362.644 531.49 367.266 458.853 369.303L438.461 369.93C153.138 379.174 143.139 377.294 143.139 377.294C127.802 374.396 132.353 359.197 141.51 352.303L174.879 327.312C184.035 320.418 174.879 301.773 166.115 294.565L136.735 270.122Z" fill="#B1B1B1"/>
<path opacity="0.67" d="M141.453 269.183C140.049 268.086 140.33 266.284 139.937 265.265C138.139 260.8 146.06 259.076 163.081 260.173C173.137 260.878 209.147 262.367 443.966 254.689L459.134 254.219C525.255 252.339 573.173 253.593 582.724 253.828C602.779 254.376 619.576 261.662 623.396 269.496V346.506C623.396 354.34 623.396 368.442 623.396 368.442H623.059C585.645 360.608 532.782 365.23 460.707 367.267L440.09 367.893C158.026 377.059 146.902 374.944 146.902 374.944C132.465 372.202 138.476 356.534 146.902 350.031L180.159 325.119C188.867 318.616 178.362 299.658 170.216 292.842L141.453 269.183Z" fill="#A7A7A7"/>
<path opacity="0.69" d="M145.891 268.242C144.599 267.224 145.048 265.344 144.711 264.404C143.138 260.173 150.891 258.606 167.744 259.703C178.979 260.408 216.618 261.818 445.932 254.297L460.988 253.906C525.648 252.026 572.78 253.122 583.51 253.436C603.228 253.906 619.744 260.8 624.013 268.556V345.409C624.013 353.243 624.013 367.345 624.013 367.266H623.676C586.487 359.432 534.074 364.054 462.505 366.17L442.393 366.796C163.643 375.727 151.34 373.455 151.34 373.455C137.746 370.87 145.273 354.81 153.419 348.699L186.619 323.708C194.765 317.597 183.08 298.404 175.384 291.98L145.891 268.242Z" fill="#9D9D9D"/>
<path opacity="0.71" d="M150.329 267.302C149.093 266.284 149.823 264.482 149.486 263.542C148.138 259.625 155.722 258.215 172.463 259.233C184.765 260.017 224.145 261.348 447.73 254.063L462.617 253.592C525.816 251.791 572.162 252.809 583.959 253.122C603.34 253.593 619.575 260.095 624.294 267.381V344.077C624.294 351.128 624.294 365.935 624.294 365.935H624.013C587.049 358.1 534.973 362.879 463.965 364.916L444.022 365.543C168.755 374.396 155.104 371.889 155.104 371.889C142.352 369.46 151.34 352.93 158.98 347.211L192.181 322.298C199.821 316.501 186.9 297.072 179.709 290.961L150.329 267.302Z" fill="#939393"/>
<path opacity="0.73" d="M154.767 266.048C153.643 265.108 154.767 263.228 154.261 262.445C153.082 258.841 160.553 257.509 177.125 258.528C190.552 259.311 231.617 260.564 449.865 253.514L464.639 253.044C526.434 251.242 571.881 252.182 584.802 252.495C603.79 252.965 619.8 259.076 624.912 265.97V342.432C624.912 349.012 624.912 364.289 624.912 364.289H624.631C587.892 356.455 536.265 361.234 465.819 363.271L445.988 363.897C173.811 372.672 159.486 369.93 159.486 369.93C147.576 367.658 158.025 350.658 165.104 345.33L198.248 320.418C205.382 315.09 191.226 295.427 184.485 289.786L154.767 266.048Z" fill="#898989"/>
<path opacity="0.75" d="M159.205 265.422C158.137 264.56 159.205 262.68 159.205 261.896C158.25 258.528 165.609 257.352 182.013 258.371C196.506 259.233 239.313 260.33 451.999 253.435L466.605 252.965C526.939 251.242 571.656 252.104 585.588 252.417C604.239 252.887 619.968 258.606 625.53 265.03V341.335C625.53 347.445 625.53 363.114 625.53 363.114H625.193C588.734 355.75 537.444 360.137 467.56 362.252L447.898 362.801C178.979 371.497 163.306 368.519 163.306 368.519C152.07 366.404 164.204 348.934 170.777 343.999L203.922 319.164C210.55 314.15 195.158 294.251 188.922 289.002L159.205 265.422Z" fill="#808080"/>
<path opacity="0.77" d="M163.643 264.482C162.688 263.698 163.98 261.74 163.643 261.035C162.856 257.979 170.103 256.961 186.114 257.901C202.124 258.841 246.279 259.938 453.404 253.201L467.898 252.731C526.771 251.007 570.645 251.791 585.869 252.104C604.127 252.574 619.575 257.901 625.53 263.855V340.004C625.53 345.644 625.53 361.783 625.53 361.783H625.474C589.296 354.575 538.4 358.805 469.021 360.921L449.528 361.548C183.867 370.008 167.07 366.875 167.07 366.875C156.902 364.916 170.272 347.054 176.395 342.432L209.427 317.598C215.551 313.054 198.978 292.842 193.192 288.063L163.643 264.482Z" fill="#767676"/>
<path opacity="0.79" d="M168.081 263.542C167.182 262.837 168.699 260.878 168.587 260.173C168.081 257.353 175.159 256.491 191.057 257.431C206.955 258.371 254.032 259.39 455.707 252.809H469.976C527.445 251.085 570.477 251.791 586.599 252.182C604.52 252.574 619.744 257.509 625.923 262.993V338.985C625.923 344.156 625.923 360.686 625.923 360.686H625.643C589.633 353.635 539.186 357.787 470.369 359.824L451.325 360.059C188.979 368.442 171.058 365.073 171.058 365.073C161.677 363.271 176.676 344.939 182.294 340.709L215.27 315.952C220.887 311.722 203.079 291.275 197.799 286.888L168.081 263.542Z" fill="#6C6C6C"/>
<path opacity="0.81" d="M172.519 262.601C171.732 261.896 173.417 259.938 173.361 259.389C173.024 256.882 179.99 256.178 195.832 257.039C213.696 258.058 261.615 258.998 457.729 252.652L471.83 252.182C528.007 250.537 570.139 251.085 587.329 251.555C600.786 251.106 614.167 254.492 626.653 261.505V337.34C626.653 342.04 626.653 359.04 626.653 359.04H626.372C590.588 352.303 540.534 356.22 472.279 358.257L453.01 358.884C193.978 367.188 174.934 363.584 174.934 363.584C166.395 361.939 182.799 343.137 187.855 339.298L220.831 314.542C225.943 310.782 206.899 290.021 202.068 286.026L172.519 262.601Z" fill="#626262"/>
<path opacity="0.83" d="M177.013 261.662C176.283 261.035 178.137 259.076 178.193 258.528C178.193 256.256 184.878 255.708 200.664 256.569C219.708 257.588 269.256 258.45 459.864 252.339L473.853 251.869C528.457 250.224 569.859 250.694 588.117 251.164C601.512 250.839 614.837 253.918 627.44 260.252V335.93C627.44 340.16 627.44 357.63 627.44 357.552C591.937 351.05 542.276 354.732 474.527 356.847L455.427 357.395C199.709 365.23 179.485 361.783 179.485 361.783C171.845 360.294 189.653 341.022 194.26 337.575L226.618 313.054C231.224 309.607 210.944 288.69 206.619 285.086L177.013 261.662Z" fill="#585858"/>
<path opacity="0.85" d="M181.676 260.721C181.002 260.173 183.08 258.214 183.193 257.666H183.473C183.473 255.707 190.215 255.237 205.944 256.021C226.112 257.118 277.401 257.901 462.448 251.947L476.268 251.555C529.411 249.91 570.027 250.302 589.408 250.772C602.597 250.634 615.717 253.41 628.283 258.998V334.519C628.283 338.28 628.283 356.142 628.283 356.142H628.002C592.723 349.874 543.737 353.4 476.324 355.437L457.392 356.063C204.933 363.897 183.586 360.059 183.586 360.059C176.788 358.727 196.113 339.063 200.439 336.008L233.359 311.252C237.403 308.196 215.888 287.044 212.068 283.832L181.676 260.721Z" fill="#4E4E4E"/>
<path opacity="0.87" d="M185.889 259.782C185.327 259.312 187.574 257.275 187.743 256.805H188.08C188.361 255.159 194.933 254.846 210.55 255.629C231.785 256.648 284.816 257.51 464.302 251.712L478.009 251.242C529.692 249.675 569.521 249.989 589.914 250.459C602.996 250.442 616.019 252.92 628.62 257.823V333.188C628.62 336.478 628.62 354.81 628.62 354.81C593.565 348.856 544.691 352.147 478.065 354.183L459.246 354.81C210.101 362.644 187.63 358.492 187.63 358.492C181.675 357.317 202.461 337.183 206 334.52L238.864 309.842C242.403 307.178 219.651 285.713 216.393 282.892L185.889 259.782Z" fill="#454545"/>
<path opacity="0.88" d="M190.327 258.841C189.821 258.371 192.349 256.413 192.518 256.021H192.911C193.36 254.611 199.821 254.454 215.101 255.159C237.572 256.256 292.176 257.039 466.156 251.399L479.694 251.007C529.973 249.44 568.96 249.675 590.475 250.145C603.443 250.223 616.36 252.432 628.957 256.726V353.4H628.676C593.846 347.759 545.422 350.736 479.301 352.851L460.651 353.4C214.764 361.234 191.001 356.768 191.001 356.768C185.889 355.75 208.135 335.146 211.225 332.874L243.976 308.275C247.066 305.925 223.078 284.224 220.213 281.874L190.327 258.841Z" fill="#3B3B3B"/>
<path opacity="0.9" d="M194.765 258.215C194.372 258.215 197.069 255.786 197.293 255.473H197.687C198.417 254.298 204.709 254.298 220.157 255.003C243.639 256.1 300.041 256.805 468.516 251.399L481.886 250.929C530.704 249.441 568.848 249.676 591.431 250.067C604.306 250.195 617.141 252.11 629.744 255.786V352.225C595.139 347.054 547.164 349.64 481.549 351.755L462.561 352.225C219.989 360.059 195.215 355.281 195.215 355.281C191.001 354.419 214.708 333.345 217.236 331.778L249.987 307.178C252.571 305.298 227.516 283.676 224.932 281.326L194.765 258.215Z" fill="#313131"/>
<path opacity="0.92" d="M199.203 256.883C198.866 256.883 201.787 254.611 202.068 254.298H202.517C209.859 253.3 217.253 253.3 224.595 254.298C249.2 255.473 307.343 256.099 470.257 250.85L483.458 250.459C530.872 248.97 568.23 249.127 591.824 249.597C604.611 249.742 617.367 251.34 629.968 254.376V350.658H629.687C595.363 345.879 547.725 348.151 482.728 350.188L464.358 350.815C225.044 358.649 199.203 353.478 199.203 353.478C195.776 352.773 221 331.308 223.022 329.976L255.717 305.455C257.739 303.888 231.336 281.952 229.426 280.072L199.203 256.883Z" fill="#272727"/>
<path opacity="0.94" d="M203.641 255.942C204.65 254.97 205.722 254.131 206.843 253.436H207.348C214.663 252.809 221.999 252.809 229.314 253.436C255.099 254.533 314.871 255.159 472.279 250.145L485.312 249.754C531.321 248.265 567.836 248.343 592.554 248.813C605.24 249.02 617.904 250.328 630.474 252.73V348.856C596.318 344.547 549.129 346.349 484.413 348.386L466.212 349.013C230.269 356.455 203.191 351.363 203.191 351.363C200.607 350.815 227.291 328.879 228.864 327.86L261.503 303.339C263.02 302.164 235.381 279.837 233.92 278.583L203.641 255.942Z" fill="#1D1D1D"/>
<path opacity="0.96" d="M208.079 255.003C209.216 254.099 210.399 253.314 211.618 252.653H212.18C213.472 252.653 219.37 252.653 234.089 253.358C260.941 254.454 322.455 255.003 474.302 250.224L487.222 249.754C531.715 248.344 567.443 248.265 593.228 248.814C607.891 248.814 620.811 250.381 630.979 251.869V347.76C597.273 344.156 550.253 345.331 486.324 347.76L468.291 348.308C235.549 355.594 207.405 350.345 207.405 350.345C205.719 349.953 233.864 327.547 234.875 326.842L267.514 302.4C268.525 301.616 239.426 278.897 238.695 278.114L208.079 255.003Z" fill="#141414"/>
<path opacity="0.98" d="M212.517 254.062C213.769 253.179 215.065 252.42 216.393 251.79H217.011C218.528 251.79 224.258 252.26 238.808 252.887C266.896 253.984 329.983 254.61 476.324 249.91L489.077 249.518C532.164 248.108 567.106 247.951 593.959 248.5C608.228 248.5 620.868 249.675 631.485 250.693V346.427C597.779 343.607 551.433 344.077 488.065 346.427L470.145 346.975C240.662 354.183 211.394 348.699 211.394 348.699C210.551 348.699 240.212 325.588 240.718 325.196L273.245 300.754C273.806 300.362 243.695 277.251 243.19 277.251L212.517 254.062Z" fill="#0A0A0A"/>
<path d="M221.842 251.007C227.123 251.79 269.649 256.491 490.986 249.283C553.399 247.168 598.79 247.717 631.99 249.283V344.861C598.284 342.98 552.5 342.51 489.526 344.861C247.178 352.695 215.213 346.819 215.213 346.819L278.806 299.03L217.011 253.2C217.011 253.2 220.663 251.085 221.224 251.007H221.842Z" fill="black"/>
</g>
<path d="M437.674 247.716C531.771 244.661 594.52 246.306 635.586 249.91V359.119C690.077 363.976 706.144 372.202 706.762 377.059C707.773 385.598 619.014 392.727 619.014 392.727V360.842C578.229 358.179 519.974 357.238 437.843 359.902C147.633 369.46 114.881 360.92 114.881 360.92L154.205 304.593L118.083 252.182C118.083 252.182 119.375 250.145 119.769 250.223C134.319 253.514 197.799 255.551 437.674 247.716Z" fill="#E02626"/>
<path d="M439.416 245.288C657.776 238.081 705.751 256.961 706.762 265.5V377.451C706.088 372.123 687.044 362.722 619.013 358.179C578.566 355.515 520.816 354.575 439.247 357.239C151.565 366.718 118.701 358.1 118.701 358.1L155.778 302.712L118.982 249.675C118.982 249.675 151.733 254.767 439.416 245.288Z" fill="url(#paint0_linear_671_6174)"/>
 </g>

</g>
<g style="mix-blend-mode:multiply" opacity="0.5">
<path opacity="0.5" d="M703.491 222.647C680.708 220.871 657.854 220.688 635.052 222.099C629.899 222.615 625.09 225.295 621.54 229.629C617.99 233.962 615.947 239.647 615.8 245.601V323.943C615.8 336.165 615.8 346.192 615.8 346.114C645.195 342.736 674.795 342.421 704.239 345.174C845.605 355.358 846.081 355.202 846.081 355.202C848.321 354.487 850.372 353.145 852.052 351.296C853.732 349.447 854.988 347.147 855.709 344.603C856.43 342.059 856.592 339.349 856.183 336.714C855.773 334.08 854.803 331.603 853.36 329.506L838.394 304.593C835.414 299.062 833.784 292.708 833.677 286.201C833.569 279.693 834.987 273.273 837.782 267.616L850.707 244.113C856.422 233.615 852.544 227.269 842.135 229.933C841.999 229.62 832.679 232.048 703.491 222.647Z" fill="white"/>
<path opacity="0.52" d="M634.304 221.863C629.285 222.576 624.656 225.341 621.259 229.655C617.862 233.969 615.925 239.545 615.8 245.366V323.003C615.8 334.754 615.8 344.939 615.8 344.939C644.854 341.572 674.114 341.257 703.218 343.999C843.428 354.105 844.38 353.713 844.38 353.713C846.541 352.882 848.494 351.46 850.073 349.569C851.652 347.678 852.808 345.374 853.444 342.855C854.079 340.336 854.175 337.677 853.722 335.107C853.269 332.536 852.281 330.13 850.843 328.095L835.605 302.869C832.828 297.331 831.366 291.049 831.366 284.655C831.366 278.26 832.828 271.978 835.605 266.44L848.394 242.937C852.952 234.477 851.32 228.444 844.789 228.366C843.303 228.306 841.818 228.464 840.367 228.836C840.367 228.836 830.23 231.343 702.47 222.099C679.774 220.399 657.008 220.32 634.304 221.863Z" fill="#F5F5F5"/>
<path opacity="0.54" d="M633.079 221.629C628.197 222.528 623.743 225.374 620.498 229.67C617.252 233.966 615.421 239.438 615.323 245.131V321.906C615.323 333.188 615.323 343.607 615.323 343.529C644.065 340.277 673.003 339.989 701.789 342.667C840.775 352.695 842.271 352.068 842.271 352.068C844.345 351.106 846.193 349.594 847.664 347.655C849.135 345.716 850.189 343.405 850.739 340.909C851.289 338.413 851.32 335.803 850.83 333.291C850.34 330.779 849.342 328.435 847.918 326.45L832.747 301.303C830.132 295.814 828.795 289.639 828.867 283.379C828.938 277.119 830.416 270.986 833.155 265.579L845.809 242.076C850.163 234.242 848.87 227.74 842.543 227.661C841.119 227.478 839.682 227.478 838.257 227.661C838.257 227.661 827.645 230.247 701.041 221.081C678.399 219.63 655.701 219.813 633.079 221.629Z" fill="#EBEBEB"/>
<path opacity="0.56" d="M632.127 221.394C627.318 222.482 622.986 225.46 619.872 229.818C616.757 234.176 615.054 239.644 615.051 245.288V320.888C615.051 331.621 615.051 342.275 615.051 342.275C643.498 339.025 672.141 338.737 700.633 341.413C838.394 351.363 840.502 350.501 840.502 350.501C842.475 349.409 844.205 347.811 845.559 345.83C846.913 343.85 847.856 341.539 848.315 339.074C848.775 336.61 848.739 334.057 848.21 331.611C847.681 329.165 846.674 326.89 845.265 324.962L830.094 299.892C827.704 294.416 826.533 288.342 826.688 282.215C826.842 276.089 828.317 270.103 830.978 264.795L843.496 241.998C847.714 234.163 846.761 227.818 840.706 227.739C839.326 227.592 837.937 227.592 836.557 227.739C836.217 227.739 825.468 230.403 699.953 221.315C677.365 219.693 654.711 219.719 632.127 221.394Z" fill="#E2E2E2"/>
<path opacity="0.58" d="M631.175 221.08C622.195 221.864 614.848 234.712 614.848 245.053V319.948C614.848 330.289 614.848 341.178 614.848 341.178C642.976 337.929 671.303 337.641 699.477 340.317C836.081 350.188 838.666 349.091 838.666 349.091C847.17 345.565 847.646 332.012 842.544 323.63L827.509 298.639C822.407 290.178 824.108 272.943 828.87 264.09L841.251 241.684C845.265 234.242 844.653 227.661 838.802 227.583C837.467 227.431 836.123 227.431 834.788 227.583C834.38 227.583 823.223 230.481 698.728 221.472C676.239 219.734 653.678 219.603 631.175 221.08Z" fill="#D8D8D8"/>
<path opacity="0.6" d="M630.155 220.846C621.651 221.551 614.644 235.026 614.644 244.818V318.851C614.644 328.722 614.644 339.769 614.644 339.769C642.482 336.635 670.509 336.372 698.389 338.985C833.768 348.7 836.897 347.446 836.897 347.446C844.993 344.078 844.857 330.054 839.959 321.985L825.128 297.386C820.298 289.551 822.475 272.003 827.033 263.542L839.279 241.449C843.088 234.399 842.748 227.583 837.238 227.505C835.926 227.351 834.604 227.351 833.292 227.505C832.816 227.505 821.251 230.482 697.912 221.551C675.363 219.634 652.73 219.399 630.155 220.846Z" fill="#CECECE"/>
<path opacity="0.62" d="M629.202 220.61C621.038 221.315 614.371 235.26 614.371 244.661V317.754C614.371 327.155 614.371 338.436 614.371 338.436C641.892 335.304 669.602 335.042 697.163 337.653C831.318 347.289 835.06 345.487 835.06 345.487C842.748 342.275 841.863 327.704 837.237 320.104L822.202 295.27C817.576 287.436 820.298 270.044 824.652 262.053L836.761 240.274C840.367 233.537 840.366 226.643 835.128 226.486C833.839 226.329 832.54 226.329 831.251 226.486C830.638 226.486 818.733 229.62 696.483 220.767C674.083 219.013 651.607 218.961 629.202 220.61Z" fill="#C4C4C4"/>
<path opacity="0.63" d="M628.249 220.375C620.494 221.002 614.167 235.495 614.167 244.426V316.579C614.167 325.51 614.167 337.104 614.167 337.026C641.308 334.029 668.626 333.793 695.803 336.321C828.801 345.878 833.019 344.155 833.019 344.155C840.366 341.1 838.734 326.058 834.38 318.772L819.413 294.016C814.991 286.73 818.189 269.103 822.339 261.426L834.244 240.039C837.713 233.615 838.053 226.564 833.019 226.486C831.776 226.318 830.521 226.318 829.278 226.486C828.597 226.486 816.352 229.697 695.191 220.923C672.912 219.039 650.549 218.856 628.249 220.375Z" fill="#BABABA"/>
<path opacity="0.65" d="M627.501 220.14C620.154 220.688 613.895 235.808 613.895 244.269V315.482C613.895 323.943 613.895 335.694 613.895 335.694C640.833 332.719 667.945 332.483 694.919 334.989C826.625 344.468 831.387 342.823 831.387 342.823C838.19 339.925 836.081 324.413 831.931 317.519L816.964 292.841C812.815 285.947 816.488 268.085 820.434 260.878L832.203 239.804C835.537 233.771 836.149 226.486 831.387 226.407C830.165 226.276 828.935 226.276 827.713 226.407C826.897 226.407 814.107 229.698 694.238 221.002C672.036 218.96 649.738 218.673 627.501 220.14Z" fill="#B1B1B1"/>
<path opacity="0.67" d="M626.276 219.827C619.474 220.454 613.691 236.044 613.691 244.035V314.542C613.691 322.376 613.691 334.519 613.691 334.441C640.332 331.474 667.149 331.211 693.83 333.658C824.312 343.137 829.89 340.943 829.89 340.943C836.693 338.201 833.496 322.141 829.89 315.639L814.991 291.04C811.046 284.537 814.992 266.597 818.937 259.703L830.57 238.942C833.7 233.223 834.652 225.781 830.162 225.703C828.963 225.572 827.756 225.572 826.557 225.703C825.672 225.703 812.951 229.15 693.694 220.532C671.263 218.489 648.736 218.253 626.276 219.827Z" fill="#A7A7A7"/>
<path opacity="0.69" d="M625.324 219.592C618.521 220.14 613.487 236.278 613.487 243.799V313.053C613.487 320.888 613.487 332.717 613.487 332.717C639.816 329.865 666.309 329.629 692.674 332.012C821.93 341.413 827.849 338.985 827.849 338.985C833.972 336.399 830.366 319.869 826.625 313.758L811.998 289.551C808.325 283.44 812.951 265.343 816.488 258.919L827.985 238.472C830.911 233.066 832.135 225.467 827.985 225.389C826.845 225.098 825.683 224.941 824.516 224.919C823.563 224.919 810.161 228.522 692.265 219.983C669.987 218.051 647.618 217.92 625.324 219.592Z" fill="#9D9D9D"/>
<path opacity="0.71" d="M624.372 219.043C618.249 219.514 613.283 236.279 613.283 243.329V331.307C639.316 328.457 665.516 328.221 691.585 330.602C819.686 339.925 826.08 337.261 826.08 337.261C831.863 334.833 827.509 317.833 824.04 312.114L809.277 287.593C805.807 281.874 810.91 263.62 814.243 257.588L825.536 237.532C828.325 232.518 829.89 224.684 825.944 224.606C824.831 224.281 823.691 224.097 822.543 224.057C821.454 224.449 807.712 227.739 690.973 219.278C668.805 217.402 646.549 217.323 624.372 219.043Z" fill="#939393"/>
<path opacity="0.73" d="M623.419 219.043C617.704 219.513 613.01 236.748 613.01 243.329V310.938C613.01 317.519 613.01 330.132 613.01 330.132C638.726 327.281 664.609 327.046 690.36 329.427C817.236 338.593 824.175 335.772 824.175 335.772C829.618 333.5 824.515 316.03 821.318 310.625L806.556 286.26C803.358 280.933 808.936 262.758 811.998 256.882L823.223 237.14C825.808 232.439 827.713 224.449 824.039 224.37C822.947 224.032 821.832 223.796 820.706 223.665C819.549 224.057 805.399 227.504 689.748 219.121C667.668 217.269 645.502 217.243 623.419 219.043Z" fill="#898989"/>
<path opacity="0.75" d="M622.398 219.043C617.092 219.043 612.806 237.218 612.806 243.329V310.076C612.806 316.187 612.806 329.035 612.806 329.035C638.209 326.3 663.77 326.09 689.204 328.408C814.923 337.496 822.406 334.362 822.406 334.362C827.373 332.325 821.658 314.306 818.665 309.371L804.378 284.772C801.385 279.836 807.508 261.269 810.297 256.099L821.386 236.67C823.767 232.361 826.012 224.135 822.543 224.135C821.93 224.135 820.298 223.117 819.345 223.273C818.121 223.665 803.63 227.19 689 218.886C666.825 217.085 644.566 217.138 622.398 219.043Z" fill="#808080"/>
<path opacity="0.77" d="M621.446 218.573C616.548 219.043 612.534 237.375 612.534 243.016V308.745C612.534 314.385 612.534 327.547 612.534 327.468C637.642 324.735 662.908 324.526 688.047 326.842C812.542 335.851 820.57 332.482 820.57 332.482C825.196 330.602 818.733 312.114 816.012 307.491L801.317 283.284C798.528 278.662 805.195 259.781 807.78 255.159L818.733 236.122C820.91 232.126 823.427 223.822 820.298 223.744C819.685 223.744 818.121 222.647 817.168 222.804C815.808 223.196 800.977 226.878 687.435 218.652C665.47 216.781 643.415 216.755 621.446 218.573Z" fill="#767676"/>
<path opacity="0.79" d="M620.698 218.339C616.208 218.339 612.534 237.611 612.534 242.781V307.648C612.534 312.819 612.534 326.137 612.534 326.137C637.419 323.501 662.455 323.318 687.367 325.589C810.637 334.52 819.209 330.916 819.209 330.916C823.495 329.192 816.352 310.234 813.767 306.003L798.936 281.717C796.351 277.565 803.494 258.685 805.739 254.298L816.488 235.574C818.529 231.892 821.386 223.431 818.461 223.352C817.917 223.352 816.352 222.178 815.468 222.334C814.039 222.804 798.8 226.565 686.211 218.417C664.404 216.558 642.508 216.532 620.698 218.339Z" fill="#6C6C6C"/>
<path opacity="0.81" d="M619.542 218.104C615.46 218.104 612.126 237.846 612.126 242.546V324.805C636.628 322.229 661.275 322.046 685.803 324.257C808.257 333.109 816.965 329.271 816.965 329.271C820.842 327.704 813.019 308.197 810.706 304.358L796.148 280.307C793.835 276.468 801.454 257.509 803.631 253.514L814.244 235.104C816.08 231.813 819.278 223.117 816.624 223.039C816.148 223.039 814.516 221.786 813.767 221.942C812.203 222.491 796.624 226.251 685.327 218.182C663.43 216.295 641.442 216.268 619.542 218.104Z" fill="#626262"/>
<path opacity="0.83" d="M618.521 217.868C614.847 217.868 611.718 238.159 611.718 242.389V305.063C611.718 309.215 611.718 323.003 611.718 323.003C635.901 320.428 660.231 320.244 684.442 322.455C805.331 331.229 814.991 327.155 814.991 327.155C818.461 325.745 809.957 305.768 807.848 302.321L793.358 278.348C791.249 274.901 799.344 255.786 801.317 252.104L811.794 234.163C813.427 231.108 816.964 222.255 814.583 222.177C814.107 222.177 812.474 220.845 811.794 220.924C810.161 221.472 794.174 225.389 683.966 217.398C662.171 215.676 640.295 215.833 618.521 217.868Z" fill="#585858"/>
<path opacity="0.85" d="M617.568 217.633C614.303 217.633 611.65 238.394 611.65 242.154V322.063C635.566 319.603 659.619 319.446 683.557 321.593C803.154 330.289 813.359 325.98 813.359 325.98C816.42 324.727 807.236 304.279 805.399 301.224L790.773 277.173C788.936 274.118 797.576 254.846 799.276 251.634L809.617 234.007C811.046 231.265 814.855 222.255 812.746 222.255C812.338 222.255 810.773 220.767 810.093 220.845C808.46 221.394 792.133 225.389 682.945 217.476C661.18 215.639 639.326 215.692 617.568 217.633Z" fill="#4E4E4E"/>
<path opacity="0.87" d="M616.616 217.32C613.759 217.32 611.446 238.629 611.446 241.92V320.888C627.365 315.639 650.767 318.146 682.401 320.418C800.841 328.957 811.658 324.492 811.658 324.492C814.379 323.395 804.447 302.399 802.882 299.736L788.46 276.233C786.827 273.491 795.875 254.141 797.44 251.32L807.576 234.007C808.869 231.657 813.018 222.412 811.182 222.412C810.841 222.412 809.209 220.845 808.596 220.924C806.828 221.472 790.16 225.546 682.061 217.79C660.29 215.669 638.408 215.512 616.616 217.32Z" fill="#454545"/>
<path opacity="0.88" d="M615.664 217.085C613.215 217.085 611.174 238.943 611.174 241.763V302.086C611.174 304.906 611.174 319.321 611.174 319.321C626.957 314.386 650.019 316.658 681.245 318.93C798.46 327.391 809.753 322.69 809.753 322.69C812.066 321.75 801.453 300.284 800.025 298.012L785.671 274.51C784.31 272.238 793.834 252.652 795.195 250.302L805.195 233.302C806.284 231.265 810.774 221.864 809.209 221.864C808.869 221.864 807.236 220.219 806.692 220.297C804.855 220.846 787.779 225.076 680.768 217.32C659.105 215.283 637.337 215.205 615.664 217.085Z" fill="#3B3B3B"/>
<path opacity="0.9" d="M614.643 216.85C612.602 216.85 610.97 239.177 610.97 241.527V317.911C626.617 313.288 649.339 315.325 680.088 317.519C796.079 325.902 807.916 320.966 807.916 320.966C809.821 320.183 798.528 298.247 797.372 296.288L783.085 272.786C781.929 270.827 791.929 251.163 793.018 249.283L802.95 232.675C803.835 230.951 808.665 221.393 807.304 221.393C807.304 221.393 805.399 219.67 804.923 219.748C803.018 220.453 785.535 224.684 679.68 217.006C658.038 214.995 636.292 214.943 614.643 216.85Z" fill="#313131"/>
<path opacity="0.92" d="M613.895 216.615C612.262 216.615 610.97 239.412 610.97 241.292V316.579C626.549 312.27 648.93 313.994 679 316.187C793.834 324.491 806.148 319.321 806.148 319.321C807.712 318.694 795.739 296.21 794.787 294.722L780.5 271.219C783.304 263.176 786.814 255.485 790.977 248.265L800.773 231.97C801.454 230.638 806.556 220.845 805.535 220.845C804.515 220.845 803.698 219.043 803.222 219.043C801.181 219.748 783.358 224.135 678.592 216.536C657.059 214.581 635.424 214.607 613.895 216.615Z" fill="#272727"/>
<path opacity="0.94" d="M612.738 216.379C611.325 224.533 610.574 232.821 610.493 241.135V315.247C625.936 311.408 647.91 312.74 677.775 315.247C791.385 323.081 804.243 318.067 804.243 318.067C800.766 309.528 796.693 301.327 792.065 293.546L777.779 270.044C780.959 262.292 784.643 254.828 788.8 247.716L798.392 232.048C798.936 231.029 804.379 221.158 803.562 221.08C802.746 221.002 801.793 219.2 801.385 219.2C799.276 219.905 780.976 224.37 677.367 216.849C655.869 214.703 634.257 214.546 612.738 216.379Z" fill="#1D1D1D"/>
<path opacity="0.96" d="M611.786 216.066C610.855 224.303 610.356 232.596 610.29 240.901V313.837C625.664 310.547 647.298 311.409 676.687 313.837C789.072 321.671 802.542 316.344 802.542 316.344C802.542 316.344 789.889 292.842 789.48 291.823L775.262 268.321C774.786 267.615 786.351 247.481 786.759 246.62L796.215 230.951C798.264 227.509 800.127 223.924 801.794 220.219C801.794 220.219 800.025 218.182 799.685 218.182C797.44 218.887 779.276 223.431 676.279 216.066C654.817 214.052 633.248 214.052 611.786 216.066Z" fill="#141414"/>
<path opacity="0.98" d="M610.766 215.831C610.357 215.831 610.017 240.196 610.017 240.666V312.505C631.779 310.023 653.7 310.023 675.462 312.505C786.691 320.339 800.637 314.699 800.637 314.699C800.637 314.699 787.031 290.648 786.691 290.256L772.541 266.754C772.541 266.362 784.378 246.071 784.582 245.68L793.902 230.403C793.902 230.403 800.161 219.827 799.889 219.827C799.253 219.066 798.571 218.359 797.848 217.712C795.535 218.495 776.623 223.117 675.394 215.753C653.885 213.752 632.271 213.779 610.766 215.831Z" fill="#0A0A0A"/>
<path d="M795.943 217.085C793.562 217.868 774.241 222.569 673.829 215.283C652.526 213.284 631.116 213.284 609.813 215.283V310.782C631.321 308.79 652.933 308.79 674.441 310.782C784.446 318.616 798.936 312.662 798.936 312.662L770.092 264.874L798.12 219.122C797.537 218.333 796.9 217.599 796.215 216.928L795.943 217.085Z" fill="black"/>
</g>
<path d="M615.732 348.856C604.02 347.911 592.526 344.734 581.717 339.455L582.125 338.75C589.812 344.469 615.528 348.778 615.8 348.856H615.732Z" fill="black"/>
<path d="M697.98 213.794C668.068 210.711 637.952 211.447 608.18 215.988V325.196C583.485 329.975 576.138 338.201 575.866 343.137C575.458 351.598 615.731 358.805 615.731 358.805V326.92C643.044 323.753 670.55 323.439 697.912 325.98C829.618 335.538 847.033 328.252 847.033 328.252L812.406 271.062L846.013 216.223C845.294 215.278 844.521 214.388 843.7 213.559C837.169 216.771 806.827 221.629 697.98 213.794Z" fill="#E02626"/>
<path d="M579.88 343.294C579.472 350.658 616.004 356.769 616.004 356.769V326.686C608.881 327.635 601.831 329.207 594.915 331.386C583.486 335.382 579.88 340.16 579.88 343.294Z" fill="#510505"/>
<path d="M697.232 211.21C598.112 204.002 576.342 222.883 575.866 231.344V343.372C575.866 338.045 584.846 328.644 615.732 324.1C642.862 320.924 670.188 320.609 697.368 323.16C827.917 332.64 844.176 325.354 844.176 325.354L810.161 268.634L844.176 213.168C844.176 213.168 827.781 220.846 697.232 211.21Z" fill="url(#paint1_linear_671_6174)"/>
<defs>
<linearGradient id="paint0_linear_671_6174" x1="118.814" y1="307.574" x2="706.706" y2="307.574" gradientUnits="userSpaceOnUse">
<stop offset="0.03" stop-color="#BE0F0F"/>
<stop offset="0.06" stop-color="#B30C0C"/>
<stop offset="0.13" stop-color="#9D0505"/>
<stop offset="0.2" stop-color="#900101"/>
<stop offset="0.26" stop-color="#8B0000"/>
<stop offset="0.33" stop-color="#A10707"/>
<stop offset="0.41" stop-color="#B60D0D"/>
<stop offset="0.46" stop-color="#BE0F0F"/>
<stop offset="0.62" stop-color="#EE8585"/>
<stop offset="0.69" stop-color="#DE6666"/>
<stop offset="0.87" stop-color="#B71D1D"/>
<stop offset="0.96" stop-color="#A80000"/>
</linearGradient>
<linearGradient id="paint1_linear_671_6174" x1="843.972" y1="274.239" x2="575.866" y2="274.239" gradientUnits="userSpaceOnUse">
<stop offset="0.03" stop-color="#BE0F0F"/>
<stop offset="0.07" stop-color="#B30C0C"/>
<stop offset="0.17" stop-color="#9D0505"/>
<stop offset="0.26" stop-color="#900101"/>
<stop offset="0.34" stop-color="#8B0000"/>
<stop offset="0.44" stop-color="#8E0101"/>
<stop offset="0.53" stop-color="#980404"/>
<stop offset="0.6" stop-color="#A90909"/>
<stop offset="0.66" stop-color="#BE0F0F"/>
<stop offset="0.89" stop-color="#EE8585"/>
<stop offset="0.91" stop-color="#EC8181"/>
<stop offset="0.93" stop-color="#E57575"/>
<stop offset="0.95" stop-color="#DB6060"/>
<stop offset="0.97" stop-color="#CC4444"/>
<stop offset="0.99" stop-color="#B81F1F"/>
<stop offset="1" stop-color="#A80000"/>
</linearGradient>
</defs>
</svg>
